<svg width="200" height="225" fill="none" xmlns="http://www.w3.org/2000/svg">
  <path fill-rule="evenodd" clip-rule="evenodd" d="M200 100C200 44.772 155.228 0 100 0S0 44.772 0 100s44.772 100 100 100 100-44.772 100-100Zm-67 0c0-18.225-14.775-33-33-33s-33 14.775-33 33 14.775 33 33 33 33-14.775 33-33Z" fill="#012F34"/>
  <path fill="#79C8C7" d="M43 0v43H0V0z"/>
  <path fill-rule="evenodd" clip-rule="evenodd" d="M200 124.487c0-55.229-44.772-100-100-100S0 69.258 0 124.487c0 55.228 44.772 100 100 100s100-44.772 100-100Zm-67 0c0-18.226-14.775-33-33-33s-33 14.774-33 33c0 18.225 14.775 33 33 33s33-14.775 33-33Z" fill="#F67E7E"/>
</svg>
