<svg width="160" height="40" fill="none" xmlns="http://www.w3.org/2000/svg"><path fill-rule="evenodd" clip-rule="evenodd" d="M68.32 29.53V13.21h4.38V8.2h-4.38V0h-6.17v8.2h-3.8v5.01h3.8v16.32h6.17Zm-62.1-11.3v11.3H0V8.2h6.21v3.1A6.24 6.24 0 0 1 8.4 8.7a6.25 6.25 0 0 1 3.27-.92c3.3 0 5.53 1.25 6.7 3.75 1.52-2.53 3.6-3.8 6.21-3.8 2.62 0 4.62.84 6 2.53 1.38 1.68 2.07 4.07 2.07 7.16v12.12h-6.15V18.15c0-1.31-.31-2.35-.94-3.1a3.23 3.23 0 0 0-2.57-1.14c-1.06 0-1.91.35-2.55 1.07-.64.71-.96 1.8-.96 3.26v11.3h-6.21V18A4.84 4.84 0 0 0 12.23 15a3.15 3.15 0 0 0-2.48-1.1c-1.02 0-1.86.36-2.53 1.06-.67.7-1 1.79-1 3.28ZM57.5 8.2 44.63 40h-6.56l5.02-12.66L35.04 8.2h6.6l4.6 12.1 4.65-12.1h6.6Zm37.8 17.46c-1.94 2.9-5.12 4.34-9.54 4.33-3.06 0-5.65-1.04-7.76-3.1-2.08-2.1-3.11-4.8-3.11-8.09 0-3.28 1.03-5.96 3.11-8a10.47 10.47 0 0 1 7.72-3.07c3.07 0 5.62 1.04 7.65 3.13 2.04 2.08 3.06 4.79 3.08 8.12l-.09 1.97H81.08c.11 1.13.68 2 1.7 2.63 1.02.63 2.16.94 3.44.94 2 0 3.51-.67 4.56-2.01l4.51 3.15Zm-5.1-8.69h-9.04a4.21 4.21 0 0 1 1.75-2.72c.9-.65 1.87-.97 2.92-.94 1.05.03 2 .36 2.86.99a3.72 3.72 0 0 1 1.5 2.67Zm22.89 12.26c-1.18.5-2.3.74-3.38.71-2.86 0-5.35-1.02-7.46-3.08-2.1-2.05-3.16-4.72-3.16-8.01s1.1-5.96 3.27-8.01a10.54 10.54 0 0 1 7.35-3.1c1.1 0 2.24.24 3.4.73a5.98 5.98 0 0 1 2.68 2.1V8.19h6.15v21.34h-6.15V27.1a6.1 6.1 0 0 1-2.7 2.12Zm-2.38-5.31a5.14 5.14 0 0 1-3.64-1.43 4.68 4.68 0 0 1-1.57-3.62c0-1.44.52-2.65 1.57-3.64a5.62 5.62 0 0 1 3.73-1.45c1.35 0 2.52.48 3.5 1.43a4.86 4.86 0 0 1 1.5 3.66c0 1.49-.5 2.7-1.5 3.64a5.03 5.03 0 0 1-3.59 1.4Zm22.81-5.67v11.3h-6.21V8.18h6.21v3.1a6.24 6.24 0 0 1 2.18-2.6 6.25 6.25 0 0 1 3.27-.92c3.3 0 5.53 1.25 6.7 3.75 1.52-2.53 3.6-3.8 6.21-3.8 2.62 0 4.62.84 6 2.53 1.38 1.68 2.07 4.07 2.07 7.16v12.12h-6.15V18.15c0-1.31-.31-2.35-.94-3.1a3.23 3.23 0 0 0-2.57-1.14c-1.06 0-1.91.35-2.55 1.07-.64.71-.96 1.8-.96 3.26v11.3h-6.22V18a4.84 4.84 0 0 0-1.02-3.01 3.15 3.15 0 0 0-2.49-1.1c-1.01 0-1.86.36-2.53 1.06-.66.7-1 1.79-1 3.28Z" fill="#fff"/></svg>